<svg viewBox="0 0 142.97 372.55" xmlns="http://www.w3.org/2000/svg"><g data-name="Layer 2"><g data-name="Layer 1"><path d="M136.474 66.772s2.505-4.618 3.371-5.652-1.328-3.585-3.088-.866-2.843 4.474-2.843 4.474z" fill="#eea886" data-name="Path 1018"/><path d="M133.915 71.422l8.876-20.06a2.364 2.364 0 00-1.651-3.218l-10.47-2.812a2.575 2.575 0 00-3.112 1.556l-7.226 20.744a2.375 2.375 0 001.787 3.071l8.821 2.119a2.6 2.6 0 002.975-1.4z" fill="#ed1846" data-name="Path 1019"/><path d="M136.982 69.95s1.054-1.715-1.792-4.944c-3.781-4.289-9.164-9.323-10.55-9.236-2 .13-1.732 1.625.866 3.911s3.464 3.031 3.464 3.031-5.732-3.152-7.412-3.062-2.52 1.613-1.663 2.309a26.6 26.6 0 003.086 1.856s-2.6-1.019-3.316-.167c-.54.629-1.131 1.608 1.068 3.08 0 0-2.477.99-.563 3.152s2.075 3.4 1.524 5.978.846 6.823.846 6.823l8.659-.522s1.556-6.388 2.742-7.891 3.041-4.318 3.041-4.318z" fill="#eea886" data-name="Path 1020"/><path d="M128.721 48.088a.973.973 0 00.883 1.074 1.01 1.01 0 001.155-.831.973.973 0 00-.883-1.071 1.007 1.007 0 00-1.155.828z" fill="#38373d" data-name="Path 1021"/><path d="M80.414 352.282s4.3 6.062 10.325 7.354 11.967 3.386 12.01 6.962-17.428 5.712-24.326 2.1c-10.3-5.383-11.341-3.752-12.484-6.451s1.371-9.889 1.3-10.743c-.093-1.055 13.175.778 13.175.778z" fill="#232729" data-name="Path 1022"/><path d="M79.747 349.337a24.126 24.126 0 01.667 2.985c-.118.063-13.583 1.57-13.176-.774.329-1.9.8-3.966.8-3.966z" fill="#81807e" data-name="Path 1023"/><path d="M47.35 352.712s3.065 5.773 8.3 7.756c5.6 2.107 10.1 4.526 9.987 8.013s-13.684 7.02-23.567.329c-6.243-4.229-8.223-4.249-9.236-6.91s1.732-9.58 1.7-10.417c-.031-1.035 12.816 1.229 12.816 1.229z" fill="#232729" data-name="Path 1024"/><path d="M47.51 349.671a26.838 26.838 0 01-.153 3c-.115.055-13.133 1.065-12.8-1.229a18.213 18.213 0 011.264-4.024z" fill="#81807e" data-name="Path 1025"/><path d="M95.234 172.952s8.027 41.994 10.8 57.277c2.35 13.009 4.214 32.616 3.086 42-1.394 11.626-26.748 74-26.018 77.407s-19.093 1.538-19.093 1.538 19.477-73.791 16.822-86.3c-1.969-9.265-12.671-65.215-15.312-62.057s-5.923 58.083-7.88 67.2-7.966 81.159-7.966 81.159-13.436 1.865-17.03-.993c0 0-1.634-61.515-.387-78.608.476-6.515-8.116-78.108 2.886-106.93 5.825-15.238 60.092 8.309 60.092 8.309z" fill="#065482" data-name="Path 1026"/><path d="M.012 128.775c0 .7 1.414 3.524 3.671 7.577 3.3-6.212 5.9-11.315 6.743-13.191 2.786-6.179 17.122-20.349 17.122-20.349a.413.413 0 000 .046.038.038 0 010 .017.576.576 0 01.017.058.53.53 0 00.035.121.444.444 0 01.02.075.506.506 0 01.017.058c.782 2.733 5.574 19.835 5.75 28.258.2 9.17 1.068 35.165 1.068 35.165a362.238 362.238 0 0060.787 6.35s.323-7.216.445-18.057c.049-4.537-.823-13.049-.577-20.949v-.528c.153-4.33-.266-8.627.595-11.751l.719-4.174c1.9 6.108 11.834 17 11.834 17 15.941 19.466 22.571-48.93 25.836-53.534l-14.854-3.875-7.533 28.379-3.443-9.329-3.669-10c-.416-.312-4.8-14.181-8.371-15.771-3.631-1.625-12.74-5.461-16.706-7.5-2.02-1.039-3.934-1.992-5.585-2.7l-.254-.107-4.549-1.954-1.189-.107c-3.813-.341-15.662-1.385-19.627-1.6-.326-.02-.6-.032-.811-.035s-.318 0-.4 0a51.383 51.383 0 00-6.157 1.977l-.367.133-.453.162-.851.306-1.764.649-.626.231c-6.422 2.4-13.6 5.64-15.532 6.543-3.83 1.8-5.383 5.146-8.928 15.05C7.055 97.602.243 122.392.032 128.498a1.335 1.335 0 00-.02.277z" fill="#00c395" data-name="Path 1027"/><g data-name="Group 199"><path d="M61.592 7.43c-10.141 0-13.922 7.219-14.117 20.571-.072 5 2.176 9.955 3.988 13.119a9.908 9.908 0 01.946 7.731l-2.226 7.537c-1.515 6.991 1.806 10.825 6.708 12.218a9.522 9.522 0 007.456-1.215c2.521-1.629 2.728-5.131 2.259-8.1l-.575-2.149a5.346 5.346 0 013.831-6.654c7.807-1.707 8.926-9.847 11.017-22.486C83.059 14.824 71.73 7.43 61.592 7.43z" fill="#eea886" data-name="Path 777"/><path d="M85.202 1.56l-5.815 1.769a11.529 11.529 0 01-6.561.042L61.216.002c-7.033 0-18.647 3.972-17.179 14.119l1.3 7.177a6.448 6.448 0 005.811 5.261 2.276 2.276 0 004.472-.6 6.9 6.9 0 015.431-6.708 25.372 25.372 0 0112.342.087c8.07 2.168 16.578-2.833 17.384-11.149q.077-.791.076-1.6c-.004-3.353-2.775-5.823-5.651-5.029z" fill="#065482" data-name="Path 778"/><path d="M53.072 28.24c0 3.1-1.153 5.6-4.133 5.6s-4.894-4.257-4.894-7.353 1.914-3.858 4.894-3.858 4.133 2.513 4.133 5.611z" fill="#eea886" data-name="Path 779"/></g><path d="M63.84 67.032s-1.772 6.668-1.134 8.532c0 0 3.9 1.334 6.7-.335a29.067 29.067 0 00-5.566-8.197z" fill="#323657" data-name="Path 1033"/><path d="M73.24 75.092s-5.522 4.012-16.643.7l7.265-8.76z" fill="#e6a563" data-name="Path 1034"/><path d="M70.39 73.702s-3.628 2.635-10.934.459l4.387-7.126z" fill="#d9c8c0" data-name="Path 1035"/><path d="M40.13 176.182a26.288 26.288 0 01-8.76 6.186l-18.184-30.757 9.433-17.125s17.084 38.697 17.511 41.696z" fill="#3c4145" data-name="Path 1036"/><path d="M40.52 58.422l6.662-3.8s.188 3.435 16.683 12.411L59.18 79.444z" fill="#f5e2d9" data-name="Path 1037"/><path d="M68.26 56.352s-.26 3.709-4.387 10.68l9.144 11.214.667-18.184z" fill="#f5e2d9" data-name="Path 1038"/><path d="M35.75 171.792s2.162 5.008 5.017 5.8 5.553 2.4 6.789 4.272-13.97 7.124-13.97 7.124-6.249-9.216-5.709-13.208 7.873-3.988 7.873-3.988z" fill="#de9d7d" data-name="Path 1039"/><path d="M27.65 103.182s-9.4 12.908-7.952 25.247l22.052 47.1s-6.979 5.66-12.885 7.984c0 0-25.773-47.143-28.864-54.743.009.001 10.18-28.479 27.649-25.588z" fill="#00c395" data-name="Path 1040"/><path d="M48.92 181.702l-19.9 9.219.762 7.473 21.226-12.844z" fill="#1e3a5e" data-name="Path 1041"/><path d="M50.004 351.175s-11.623 2.451-17.693-.993l-.361-5.62a75.3 75.3 0 0019.018.724z" fill="#172c47" data-name="Path 1042"/><path d="M83.54 350.222s-4.269 3.646-20.06.953l1.732-6.613s10.056 2.309 19.521 0z" fill="#172c47" data-name="Path 1043"/><path d="M108.262 96.142c0 2.765.921 21.143.921 21.143l2.52-11.8z" fill="#00a880" data-name="Path 1044"/></g><path d="M65.467 40.172s3.631 1.992 9.957.352c0 0-6.912 5.154-9.957-.352z" fill="#fff"/></g></svg>