<svg viewBox="0 0 123.25 348.72" xmlns="http://www.w3.org/2000/svg"><g data-name="Group 109"><path d="M36 23.501s1.529 17.252-10.1 29.185l18.448-3.789S66.979 33.801 36 23.501z" fill="#065482" data-name="Path 692"/><path fill="#f2f2f2" data-name="Rectangle 2205" d="M34.436 192.33h61.628v71.998H34.436z"/><path fill="#f9c8ae" data-name="Rectangle 2206" d="M119.58 332.23l-9.43 3.033-4.641-14.43 9.43-3.033z"/><path d="M123.25 340.11l-26.692 8.576a10.22 10.22 0 016.615-12.864l1.1-.366.731-5.551 2.559-.831a8.311 8.311 0 008.842 2.46l3.69-1.2z" fill="#065482" data-name="Path 693"/><path fill="#f9c8ae" data-name="Rectangle 2207" d="M49.76 324.72h9.906v15.158H49.76z"/><path d="M45.18 327.05c1.4-1.562-10.9-70.436-12.532-87.554-1.629-17.086 0-82.635 0-82.635H88.16s14.892 103.34 16.953 112.68 12.963 54.515 12.963 54.515l-14.127 4.288S84.403 278.75 80.78 264.323c-2.792-11.069-14.26-48.132-19.445-64.752a1.224 1.224 0 00-2.393.4l2.427 127.11H45.18z" fill="#065482" data-name="Path 694"/><path d="M82.93 22.338l-.033.3a36.94 36.94 0 0012.8 34.3L59.63 60.464l2.925-39.456z" fill="#065482" data-name="Path 695"/><ellipse transform="rotate(-170.76 42.057 57.285)" cx="32.973" cy="36.463" rx="32.973" ry="36.463" fill="#065482" data-name="Ellipse 60"/><path d="M38.4 59.83l-4.089 1.828C23.674 66.445 12.273 73.89 10.278 85.391L.871 121.523c-2.26 22.936-1.961 39.356 22.038 45.971l3.424 2.859z" fill="#fff" data-name="Path 696"/><circle transform="translate(55.61 53.616)" cx="27.091" cy="27.091" fill="#065482" data-name="Ellipse 61" r="27.091"/><circle transform="translate(36.031)" cx="23.501" cy="23.501" fill="#065482" data-name="Ellipse 62" r="23.501"/><path d="M41.8 58.8h31.213v116.21h-47.8z" fill="#00c395" data-name="Path 697"/><path d="M41.78 58.799l-1.629 6.016h31.046l-3.956-5.684a20.071 20.071 0 01-3.257-15.324l1.5-7.911-13.928 3.091v6.881a12.174 12.174 0 01-5.451 10.105z" fill="#f9c8ae" data-name="Path 698"/><path d="M39.28 16.254l-2.061 12.665c-1.1 6.814 2.759 13.828 12.7 15.922 9.905 2.094 18.581-8.244 18.581-8.244-7.213-1.4-14.393-6.582-13.2-13.861l1.363-8.443-.5-.066a5.844 5.844 0 01-4.82-6.681 10.589 10.589 0 00-12.063 8.708z" fill="#f9c8ae" data-name="Path 699"/><path d="M65.48 56.08l4.587 1.662a55.223 55.223 0 0122.6 15.423l-.166 76.187a190.71 190.71 0 003.291 35.334l10.936 58.17a18.1 18.1 0 01-17.784 21.44h-23.5V56.076z" fill="#f7f7f7" data-name="Path 700"/><path d="M41.8 58.8l-2.493 29.118a354.19 354.19 0 00-.9 46l5.95 130.37h-3.39a19.771 19.771 0 01-19.778-20.11l2.327-139.11V85.66c.033-10.67 7.745-25.1 18.282-26.858z" fill="#fff" data-name="Path 701"/><path d="M13.1 168.7h32.011a4.728 4.728 0 004.654-5.451l-7.712-48.431a4.686 4.686 0 00-4.653-3.956H5.39a4.728 4.728 0 00-4.654 5.451l7.712 48.431A4.686 4.686 0 0013.1 168.7z" fill="#ed1846" data-name="Path 702"/><path d="M13.1 168.7h32.011a4.728 4.728 0 004.654-5.451l-7.712-48.431a4.686 4.686 0 00-4.653-3.956H5.39a4.728 4.728 0 00-4.654 5.451l7.712 48.431A4.686 4.686 0 0013.1 168.7z" fill="#ed1846" data-name="Path 703"/><path d="M7.2 156.89l6.282-3.889a7.216 7.216 0 004.221-6.482 3.573 3.573 0 00-4.487-3.357l-3.756.931a11.407 11.407 0 00-4.587 2.36l-.4.931a7.714 7.714 0 001.463 8.144z" fill="#f9c8ae" data-name="Path 704"/><path d="M69.574 203.934c-1.762 2.028-8.609 1.263-7.579-.067l1.995-1.463a9.759 9.759 0 002.726-2.992c.233-.366.432-.731.7-1.1a9.824 9.824 0 012.127-2.26l.332-.266-3.59-.033c-2.061.166-2.26-2.493.233-2.859l6.648-.931 7.643-4.483 3.49 6.615z" fill="#f9c8ae" data-name="Path 705"/><path d="M92.67 73.16s22.8 33.739 25.4 64.054-33.012 64.489-33.012 64.489l-10.072-15.324-2.028-3.091s25.894-29.251 24.1-49.993S76.582 86.16 76.582 86.16a12.759 12.759 0 0115.889-13.063z" fill="#fff" data-name="Path 706"/><path d="M60.67 348.57H32.648a10.242 10.242 0 0110.238-10.238h1.163l2.393-5.053h2.692a8.4 8.4 0 007.679 5.053h3.889v10.238z" fill="#065482" data-name="Path 707"/><g data-name="Group 108"><g data-name="Group 107"><g data-name="Group 105"><path d="M76.987 229.52l1.164-3.723a10.59 10.59 0 0013.3-6.98l1.861-5.983a15.048 15.048 0 00-9.839-18.814 14.685 14.685 0 00-18.415 9.64l-.931 2.992-3.723-1.163.927-2.991a18.625 18.625 0 0123.3-12.2 18.934 18.934 0 0112.4 23.7l-1.861 5.983a14.5 14.5 0 01-18.183 9.539z" fill="#ed1846" data-name="Path 709"/></g><g data-name="Group 106"><path d="M56.12 246.134l-.6-.2 1.163-3.723.6.2a4.747 4.747 0 005.95-3.125l5.451-17.385a10.83 10.83 0 00-20.676-6.448l-5.45 17.389a4.747 4.747 0 003.125 5.95l-1.163 3.723a8.686 8.686 0 01-5.684-10.836l5.451-17.385a14.73 14.73 0 0128.121 8.775l-5.451 17.385a8.647 8.647 0 01-10.837 5.68z" fill="#ed1846" data-name="Path 710"/></g></g></g><path d="M64.45 197.91s8.31-.2 9.075-.366-5.784 6.05-6.349 6.449a17.58 17.58 0 01-2.726 1.1s-3.224.332-4.354-1.6 2.393-5.516 4.354-5.583z" fill="#f9c8ae" data-name="Path 711"/><ellipse transform="translate(73.593 223.54)" cx="3.69" cy="4.787" rx="3.69" ry="4.787" fill="#cce9ff" data-name="Ellipse 63"/><circle transform="translate(42.414 237.97)" cx="2.327" cy="2.327" fill="#cce9ff" data-name="Ellipse 64" r="2.327"/><circle transform="translate(54.214 241.89)" cx="2.327" cy="2.327" fill="#cce9ff" data-name="Ellipse 65" r="2.327"/></g><path d="M45.163 35.253a.154.154 0 00.065 0 6.712 6.712 0 003.975-3.016.147.147 0 10-.258-.144 6.532 6.532 0 01-3.784 2.872.15.15 0 00-.112.177.148.148 0 00.114.11z" fill="#fff" stroke="#fff" stroke-width=".5" data-name="Path 1048"/></svg>